<svg id="Warstwa_1" data-name="Warstwa 1" xmlns="http://www.w3.org/2000/svg" viewBox="0 0 138.81 140.69"><defs><style>.cls-1{fill:#ddd9d1;}</style></defs><title>nowe_logo</title><path class="cls-1" d="M68,125.57,1.46,59.07,45.27,15.28C62.75.79,81.28-3,100.34,3.85a58.11,58.11,0,0,1,22.81,13.84A57.5,57.5,0,0,1,137,40.52c6.88,19,3,37.51-11.46,55l-.19.21L95.74,125.3,91.48,121,121,91.56c13.14-15.9,16.52-31.95,10.32-49.06A51.69,51.69,0,0,0,118.89,22,52.06,52.06,0,0,0,98.36,9.54C81.18,3.32,65.13,6.69,49.22,19.83L10,59.07l62.24,62.24Zm14.39-21.31L59.44,81.35a32.41,32.41,0,0,1,45.83-45.84h0a32.44,32.44,0,0,1,0,45.83Zm0-72.2a26.38,26.38,0,0,0-18.65,45L82.35,95.74,101,77.09a26.38,26.38,0,0,0-18.66-45Z" transform="translate(-1.46 -0.52)"/><path class="cls-1" d="M81.08,141.21a8.25,8.25,0,1,1,5.83-14.08h0a8.25,8.25,0,0,1-5.83,14.08Zm0-10.47a2.23,2.23,0,1,0,1.57,3.8,2.23,2.23,0,0,0-1.57-3.8Z" transform="translate(-1.46 -0.52)"/></svg>